<svg xmlns="http://www.w3.org/2000/svg" viewBox="0 0 128 160" x="0px" y="0px"><title>man, avatar, occupation, career, people, male, backpacker</title><g data-name="Layer 2"><rect x="51.082" y="55.295" width="4.58" height="5.278" rx="2.279" ry="2.279" transform="translate(106.744 115.868) rotate(180)"/><rect x="72.338" y="55.295" width="4.58" height="5.278" rx="2.279" ry="2.279"/><path d="M53.906,53.751a6.309,6.309,0,0,0-4.854,1.566,1,1,0,1,0,1.4,1.424,4.357,4.357,0,0,1,3.261-1,2.87,2.87,0,0,1,2.157,1.143,1,1,0,0,0,1.647-1.135A4.821,4.821,0,0,0,53.906,53.751Z"/><path d="M47.191,52.105l.059-.013a22.818,22.818,0,0,1,2.648-.416,25.615,25.615,0,0,1,5.434.037c.906.076,1.8.25,2.706.393l.038.007a.806.806,0,0,0,.4-1.554A16.2,16.2,0,0,0,55.6,49.8a18.688,18.688,0,0,0-5.946,0,13.938,13.938,0,0,0-2.927.771.8.8,0,0,0,.469,1.532Z"/><path d="M74.094,53.751a4.821,4.821,0,0,0-3.615,2,1,1,0,0,0,1.647,1.135,2.87,2.87,0,0,1,2.157-1.143,4.36,4.36,0,0,1,3.261,1,1,1,0,0,0,1.4-1.424A6.307,6.307,0,0,0,74.094,53.751Z"/><path d="M69.924,52.112l.038-.006c.908-.143,1.8-.317,2.706-.393a25.615,25.615,0,0,1,5.434-.037,22.818,22.818,0,0,1,2.648.416l.059.013a.8.8,0,0,0,.469-1.532,13.922,13.922,0,0,0-2.927-.771,18.688,18.688,0,0,0-5.946,0,16.2,16.2,0,0,0-2.88.759.805.805,0,0,0,.4,1.553Z"/><path d="M63.99,67.41c.035,0,3.53-.111,3.53-1.89a1,1,0,0,0-1.892-.455,4.085,4.085,0,0,1-3.286,0,1,1,0,0,0-1.892.455C60.45,67.329,63.955,67.41,63.99,67.41Z"/><path d="M95.438,108.328C95.419,97.345,94.176,81.913,84.3,72.515c.056-.212.111-.437.166-.671a6.537,6.537,0,0,0,1.093.092,7.293,7.293,0,0,0,3.21-.77,8.55,8.55,0,0,0,4.3-4.916c1.055-3.241.547-6.215-1.276-7.977a32.161,32.161,0,0,0-.015-15.851c0-.018-.008-.036-.013-.054a34.43,34.43,0,0,0-6-12.685c-.009-.012-.023-.017-.033-.029a27.9,27.9,0,0,0-9.117-7.833h0l-.02-.011c-.428-.231-.808-.417-1.173-.589-.272-1.522-1.541-2.908-3.6-3.941a2.99,2.99,0,0,1,1.326-1.392,6.277,6.277,0,0,1,3.168-.412c1.228.046,2.4.089,3.153-.7a2.423,2.423,0,0,0,.566-1.959,4.488,4.488,0,0,0-2.309-3.6,6.488,6.488,0,0,0-4.007-.7c1-1.678,1.878-3.834-.045-5.747A3.433,3.433,0,0,0,70.036,2.3a6.307,6.307,0,0,0-3.3,3.022c-.124-.286-.253-.566-.391-.837C64.789,1.442,62.9.917,61.917.875a3.573,3.573,0,0,0-3.192,1.747,4.2,4.2,0,0,0-.615,1.819,6.25,6.25,0,0,0-4-.733,3.191,3.191,0,0,0-2.831,2.5,3.96,3.96,0,0,0,1.525,4A6.781,6.781,0,0,0,48.326,11.6a3.661,3.661,0,0,0-1.246,3.807c.685,2.707,3.244,2.253,4.94,1.952a6.608,6.608,0,0,1,2.294-.164,2.045,2.045,0,0,1,1.085.561,5.516,5.516,0,0,0-2.756,3.47c-.413.2-.806.388-1.16.583l-.025.014h0a27.906,27.906,0,0,0-9.116,7.831c-.01.012-.025.018-.035.031a34.45,34.45,0,0,0-6,12.675c-.007.025-.012.05-.017.076a32.165,32.165,0,0,0-.025,15.789c-1.879,1.754-2.407,4.744-1.334,8.025a8.515,8.515,0,0,0,4.281,4.915,7.264,7.264,0,0,0,3.211.773,6.493,6.493,0,0,0,1.116-.1c.056.238.111.465.166.675-9.879,9.4-11.122,24.831-11.141,35.815a4.964,4.964,0,0,0-.749,3.825c.5,1.911,2.359,3.157,4.111,4.12.451.251,1.024.53,1.756.853a47.674,47.674,0,0,0,8.611,2.709,77.57,77.57,0,0,0,11.6,1.632c.018.387.041.76.077,1.087a3.191,3.191,0,0,0,2.181,2.791,21.79,21.79,0,0,0,5.207.654c.17,0,.332,0,.486-.01l.059,0a2.816,2.816,0,0,0,2.505-2.614c.038-.5.065-1.13.082-1.819a77.119,77.119,0,0,0,13.217-1.717,47.6,47.6,0,0,0,8.615-2.711c.729-.321,1.3-.6,1.749-.849,1.756-.965,3.618-2.211,4.116-4.122A4.973,4.973,0,0,0,95.438,108.328ZM85.485,65.167c.006-.055.011-.112.016-.167a3.744,3.744,0,0,1,3.038-1.235,1,1,0,0,0,.206-1.99,6.139,6.139,0,0,0-3.027.562c.07-1.019.136-2.146.2-3.423a7.525,7.525,0,0,1,3.387.063,3.342,3.342,0,0,1,.771.426c1.551,1.148,1.971,3.535,1.094,6.228a6.512,6.512,0,0,1-3.284,3.739,5.093,5.093,0,0,1-3.017.5C85.117,68.484,85.322,66.939,85.485,65.167Zm-45.391,4.2A6.489,6.489,0,0,1,36.83,65.63c-.876-2.682-.433-5.133,1.149-6.259a3.148,3.148,0,0,1,.731-.4,7.567,7.567,0,0,1,3.373-.056c.063,1.277.128,2.4.2,3.421a6.142,6.142,0,0,0-3.026-.561,1,1,0,0,0,.2,1.99A3.754,3.754,0,0,1,42.5,65l.006.059,0,.013a.905.905,0,0,0,.012.091l0,.042c.158,1.695.364,3.226.621,4.663A5.06,5.06,0,0,1,40.094,69.369ZM57.107,19.08a13.036,13.036,0,0,1,3.707-1.189,15.1,15.1,0,0,1,2.133-.254,17.121,17.121,0,0,1,3.619.133,15.433,15.433,0,0,1,3.67.974,8.127,8.127,0,0,1,2.174,1.287,27.067,27.067,0,0,0-8.38-1.3l-.066,0h0a27.034,27.034,0,0,0-8.276,1.288A7.358,7.358,0,0,1,57.107,19.08ZM49.8,38.312c3.464-4.249,8.149-5.533,13.92-3.813a1,1,0,0,0,.569,0c5.436-1.615,9.9-.57,13.292,3.1,5.076,5.476,6.605,15.526,6.375,20.572-.131,2.755-.266,4.8-.437,6.6-2.238,5.984-5.059,6.882-6.544,6.882A7.931,7.931,0,0,1,72.938,70.3,16.192,16.192,0,0,0,64,67.95,16.078,16.078,0,0,0,55.037,70.3,7.931,7.931,0,0,1,51,71.65c-1.475,0-4.272-.884-6.505-6.763-.175-1.812-.313-3.889-.446-6.714C43.827,53.486,45.19,43.95,49.8,38.312Zm19.83,34.682a13.932,13.932,0,0,1-11.25,0,1,1,0,1,1,.971-1.748,12.062,12.062,0,0,0,9.308,0,1,1,0,1,1,.971,1.748Zm-32.559,41.62c-.054-.029-.124-.062-.173-.09-1.935-1.064-2.905-1.95-3.145-2.873a3.282,3.282,0,0,1,.658-2.519,24.719,24.719,0,0,1,3.5-4.207A48.775,48.775,0,0,0,37.066,114.614Zm3.2-16.266a16.062,16.062,0,0,0-1.387,2.985,36.045,36.045,0,0,0-4.282,4.216c.232-10.017,1.853-22.707,9.768-30.872a18.264,18.264,0,0,0,6.684,8.933,28.3,28.3,0,0,0,5.212,3.083c-.19,3.778-2.043,5.578-4.79,7.038-.6.329-1.227.621-1.844.911a5.139,5.139,0,0,0-2.962-.408A8.835,8.835,0,0,0,40.268,98.348Zm25.186,14.073a33.572,33.572,0,0,0-5.019.488,2.8,2.8,0,0,0-2.329,2.442c-.13,1.129-.221,2.648-.24,4.11a76.1,76.1,0,0,1-10.41-1.43,61.442,61.442,0,0,1,2.889-21.515l.122-.058c.192-.09.379-.191.571-.282a12.134,12.134,0,0,0,6.91,10.022c.042.68.095,1.323.158,1.87a2.8,2.8,0,0,0,2.328,2.442,33.78,33.78,0,0,0,4.772.478c.086,0,.165,0,.248-.006Zm.391-14.992a21.312,21.312,0,0,0-5.692.644,3.191,3.191,0,0,0-2.182,2.791,27.014,27.014,0,0,0-.106,3.038,10.23,10.23,0,0,1-4.879-8.721,9.417,9.417,0,0,0,5.236-7.7A17.427,17.427,0,0,0,64,88.59a17.423,17.423,0,0,0,5.778-1.107,9.424,9.424,0,0,0,5.251,7.708,10.257,10.257,0,0,1-6.528,9.5c.026-1.753-.007-3.5-.092-4.642a2.818,2.818,0,0,0-2.5-2.613Zm14.7,20.6a75.711,75.711,0,0,1-12.037,1.521c-.007-1.732-.071-3.558-.207-4.88a2.492,2.492,0,0,0-.848-1.629V110.4a2.535,2.535,0,0,0,.848-1.65c.057-.561.1-1.22.135-1.917a12.077,12.077,0,0,0,8.524-10.646c.191.091.382.183.572.272l.122.058A61.641,61.641,0,0,1,80.546,118.029Zm7.183-19.676a8.836,8.836,0,0,0-6.395-4.119,5.151,5.151,0,0,0-2.963.408c-.617-.29-1.24-.582-1.851-.914-2.741-1.458-4.593-3.256-4.783-7.034a28.408,28.408,0,0,0,5.213-3.085,18.261,18.261,0,0,0,6.683-8.932c7.915,8.165,9.536,20.856,9.768,30.871a36.143,36.143,0,0,0-4.292-4.224A15.34,15.34,0,0,0,87.729,98.353Zm6.523,13.3c-.24.923-1.21,1.809-3.148,2.875-.048.027-.118.06-.17.088a48.768,48.768,0,0,0-.836-9.689,24.75,24.75,0,0,1,3.5,4.2A3.285,3.285,0,0,1,94.252,111.651Z"/></g><text x="0" y="143" fill="#000000" font-size="5px" font-weight="bold" font-family="'Helvetica Neue', Helvetica, Arial-Unicode, Arial, Sans-serif">Created by Victoruler</text><text x="0" y="148" fill="#000000" font-size="5px" font-weight="bold" font-family="'Helvetica Neue', Helvetica, Arial-Unicode, Arial, Sans-serif">from the Noun Project</text></svg>