<svg xmlns="http://www.w3.org/2000/svg" xmlns:xlink="http://www.w3.org/1999/xlink" version="1.1" x="0px" y="0px" viewBox="0 0 100 125" style="enable-background:new 0 0 100 100;" xml:space="preserve"><style type="text/css">
	.st0{display:none;}
</style><g><g><g><path d="M78.21,78.89c-0.33-2.58-0.81-6.58-0.81-6.58c-0.4-3.21-2.26-5.94-4.98-7.3L59.64,58.6c-1.65-0.98-2.52-3.58-2.89-5.08     c6.04-2.23,10.37-8.03,10.37-14.84v-0.63c1.71-0.1,3.93-1.05,4.52-5.18c0.4-2.72,0.02-4.46-1.16-5.32     c-0.83-0.6-1.98-0.67-3.36-0.21v-2.46c0-8.72-7.1-15.83-15.83-15.83h-2.28c-8.72,0-15.83,7.1-15.83,15.83v2.46     c-1.38-0.46-2.53-0.39-3.36,0.21c-1.18,0.86-1.56,2.6-1.16,5.31c0.6,4.14,2.82,5.09,4.53,5.19v0.63c0,6.7,4.19,12.43,10.09,14.73     l-0.02,0.08c-0.37,1.48-1.24,4.12-2.9,5.11l-12.77,6.41c-2.72,1.36-4.58,4.09-4.98,7.3c0,0-0.49,4-0.81,6.58     c-0.2,1.64,0.59,3.25,2,4.12c8.59,5.23,17.4,7.9,26.2,7.93c8.81-0.03,17.62-2.7,26.2-7.93C77.62,82.14,78.4,80.53,78.21,78.89z      M67.12,29.07c1.08-0.46,1.94-0.53,2.4-0.2c0.62,0.45,0.8,1.78,0.51,3.76c-0.44,3.02-1.73,3.71-2.91,3.79V29.07z M33.19,36.42     c-1.17-0.07-2.48-0.77-2.92-3.79c-0.29-1.98-0.11-3.32,0.51-3.76c0.46-0.33,1.32-0.26,2.4,0.2V36.42z M34.82,38.68v-13.8     c0-7.83,6.37-14.2,14.2-14.2h2.28c7.83,0,14.2,6.37,14.2,14.2v13.8c0,7.83-6.37,14.2-14.2,14.2h-2.28     C41.19,52.88,34.82,46.51,34.82,38.68z M49.97,69.35c-4.47,0-8.12-4.24-8.37-9.64c1.79-1.34,2.75-3.85,3.23-5.77l0.01-0.01     c1.34,0.37,2.74,0.58,4.19,0.58h2.28c1.34,0,2.65-0.19,3.9-0.51c0.5,1.95,1.45,4.4,3.21,5.71C58.15,65.13,54.5,69.35,49.97,69.35     z"/></g><g><path d="M59.85,42.42c-0.07,0.29-0.51,1.73-1.74,2.85c-0.92,0.83-2.57,1.69-5.16,1.08c-0.03-0.01-0.06-0.02-0.09-0.02     c-0.08-0.03-1.67-0.6-2.8-1.78c-1.12,1.18-2.71,1.75-2.79,1.78c-0.03,0.01-0.06,0.02-0.09,0.02c-0.61,0.15-1.17,0.21-1.69,0.21     c-1.79,0-2.98-0.77-3.71-1.52c-1.14-1.16-1.49-2.57-1.5-2.63c-0.08-0.34,0.07-0.71,0.37-0.89c0.31-0.19,0.7-0.14,0.97,0.1     c0.34,0.29,1.5,0.4,3.41-1.21c1.33-1.12,2.58-1.58,3.73-1.4c0.55,0.08,0.98,0.31,1.3,0.55c0.32-0.24,0.75-0.46,1.3-0.55     c1.16-0.19,2.41,0.29,3.73,1.4c0.86,0.72,1.64,1.16,2.32,1.32c0.76,0.17,1.1-0.11,1.12-0.12c0.27-0.23,0.66-0.26,0.96-0.07     C59.79,41.72,59.94,42.07,59.85,42.42z"/></g><g><path d="M63.13,26.28H51.99c-0.45,0-0.81,0.37-0.81,0.81v1.4h-2.39v-1.4c0-0.45-0.37-0.81-0.81-0.81H36.82     c-0.45,0-0.81,0.37-0.81,0.81v6.06c0,3.25,2.65,5.91,5.91,5.91h0.97c3.25,0,5.91-2.66,5.91-5.91v-3.03h2.39v3.03     c0,3.25,2.65,5.91,5.91,5.91h0.97c3.25,0,5.9-2.66,5.9-5.91V27.1C63.94,26.65,63.59,26.28,63.13,26.28z M38.03,32.37     c-0.2,0-0.38-0.07-0.54-0.2c-0.34-0.3-0.37-0.81-0.07-1.15l2.95-3.36c0.3-0.34,0.81-0.37,1.16-0.07     c0.33,0.29,0.37,0.81,0.07,1.15l-2.96,3.36C38.48,32.27,38.26,32.37,38.03,32.37z M43.07,30.92l-1.87,2.04     c-0.16,0.17-0.38,0.26-0.6,0.26c-0.2,0-0.39-0.07-0.55-0.21c-0.33-0.3-0.36-0.82-0.05-1.15l1.87-2.04     c0.3-0.33,0.81-0.36,1.15-0.06C43.35,30.08,43.38,30.59,43.07,30.92z M53.2,32.37c-0.2,0-0.38-0.07-0.54-0.2     c-0.34-0.3-0.37-0.81-0.07-1.15l2.95-3.36c0.3-0.34,0.81-0.37,1.15-0.07c0.34,0.29,0.37,0.81,0.07,1.15l-2.95,3.36     C53.65,32.27,53.43,32.37,53.2,32.37z M58.23,30.92l-1.87,2.04c-0.16,0.17-0.38,0.26-0.6,0.26c-0.2,0-0.39-0.07-0.55-0.21     c-0.33-0.3-0.36-0.82-0.05-1.15l1.87-2.04c0.3-0.33,0.81-0.36,1.15-0.06C58.52,30.08,58.54,30.59,58.23,30.92z"/></g></g></g><text x="0" y="115" fill="#000000" font-size="5px" font-weight="bold" font-family="'Helvetica Neue', Helvetica, Arial-Unicode, Arial, Sans-serif">Created by AB Designs</text><text x="0" y="120" fill="#000000" font-size="5px" font-weight="bold" font-family="'Helvetica Neue', Helvetica, Arial-Unicode, Arial, Sans-serif">from the Noun Project</text></svg>