<svg xmlns="http://www.w3.org/2000/svg" viewBox="0 0 128 160" x="0px" y="0px"><title>Primary school, student, study, school, girl, avatar, child</title><g data-name="Primary school girl"><rect x="72.887" y="52.035" width="4.4" height="5.279" rx="2.107" ry="2.107"/><path d="M48.607,44.733a9.7,9.7,0,0,1,7.541-.643,1.086,1.086,0,0,1,.679,1.265h0A1.089,1.089,0,0,1,55.6,46.2a16.435,16.435,0,0,0-5.378-.062c-1.263.29-1.772-.013-1.969-.378A.786.786,0,0,1,48.607,44.733Z"/><rect x="50.713" y="52.035" width="4.4" height="5.279" rx="2.107" ry="2.107" transform="translate(105.826 109.349) rotate(180)"/><path d="M72.409,54.43a1,1,0,0,1-1-.958,2.8,2.8,0,0,1,.777-2.014,4.329,4.329,0,0,1,3.025-1.287,4.227,4.227,0,0,1,4.243,2.056,1,1,0,0,1-1.771.927,2.433,2.433,0,0,0-2.391-.985,2.376,2.376,0,0,0-1.637.645.832.832,0,0,0-.248.574,1,1,0,0,1-.957,1.041Z"/><path d="M55.591,54.43h-.043a1,1,0,0,1-.957-1.041.832.832,0,0,0-.248-.574,2.371,2.371,0,0,0-1.63-.645,2.444,2.444,0,0,0-2.4.985,1,1,0,1,1-1.771-.927,4.243,4.243,0,0,1,4.25-2.056,4.325,4.325,0,0,1,3.018,1.287,2.8,2.8,0,0,1,.777,2.014A1,1,0,0,1,55.591,54.43Z"/><path d="M62.65,61.81a1,1,0,0,0,.86-.49,1.06,1.06,0,0,1,.98,0,1,1,0,0,0,1.86-.51c0-1.228-1.723-1.61-2.35-1.61s-2.35.382-2.35,1.61A1,1,0,0,0,62.65,61.81Z"/><path d="M66.96,64.91H61.04a2,2,0,0,0-1.576.794,2.461,2.461,0,0,0-.4,2.133,5.061,5.061,0,0,0,9.877,0,2.458,2.458,0,0,0-.4-2.129A2,2,0,0,0,66.96,64.91ZM67,67.343a3.064,3.064,0,0,1-6,0,.533.533,0,0,1,.04-.437l5.888,0C66.972,66.926,67.068,67.07,67,67.343Z"/><path d="M87.349,61.32a1,1,0,0,1-.814-1.58,8.611,8.611,0,0,1,4.274-3.153,1,1,0,0,1,.543,1.926A6.681,6.681,0,0,0,88.164,60.9,1,1,0,0,1,87.349,61.32Z"/><path d="M40.691,61.32a1,1,0,0,1-.815-.42,6.689,6.689,0,0,0-3.188-2.387,1,1,0,0,1,.543-1.926,8.611,8.611,0,0,1,4.274,3.153,1,1,0,0,1-.814,1.58Z"/><path d="M96.2,62a7.9,7.9,0,0,0-.163-6.623,34.069,34.069,0,0,0-3.011-31.606C86.793,14.455,76.215,9.11,64,9.11S41.207,14.455,34.978,23.773a34.073,34.073,0,0,0-2.993,31.652A7.891,7.891,0,0,0,31.844,62a9.408,9.408,0,0,0,5.72,5.515,14.275,14.275,0,0,0,.152,8,11.249,11.249,0,0,0-.321,7.957,13.3,13.3,0,0,0-.872,5.593,6.419,6.419,0,0,0,.549,2.579,11.666,11.666,0,0,0-1.089,4.529,8.479,8.479,0,0,0,.712,4.265,47.814,47.814,0,0,0-3.842,4.605,5.069,5.069,0,0,0-1.238,4.142c.437,1.991,2.459,3.278,3.95,4.076.419.22.871.44,1.368.658l.014.006.007,0a50.551,50.551,0,0,0,8.545,2.731A82.447,82.447,0,0,0,63.99,118.89a82.415,82.415,0,0,0,18.481-2.227,50.689,50.689,0,0,0,8.554-2.731l.007,0,.015-.006c.5-.221.956-.442,1.366-.661,1.483-.8,3.505-2.082,3.943-4.073a5.062,5.062,0,0,0-1.228-4.141,47.27,47.27,0,0,0-3.851-4.608,8.478,8.478,0,0,0,.711-4.247,11.689,11.689,0,0,0-1.083-4.546,6.415,6.415,0,0,0,.545-2.581,13.339,13.339,0,0,0-.875-5.59,11.224,11.224,0,0,0-.32-7.958,14.209,14.209,0,0,0,.155-7.983A9.39,9.39,0,0,0,96.2,62Zm-10.84,4.246a22.551,22.551,0,0,1-4.178,7.667,25.286,25.286,0,0,1-10.967,7.6c-.326.121-.653.224-.989.322a17.886,17.886,0,0,1-5.2.875,18.12,18.12,0,0,1-5.3-.9c-.3-.083-.593-.185-.907-.3A25.3,25.3,0,0,1,46.82,73.872a22.475,22.475,0,0,1-4.138-7.631,119.418,119.418,0,0,1-1.666-11.988,7.913,7.913,0,0,0,1.659-.684c2.019-1.081,2.645-3.265,3.436-6.032a31.064,31.064,0,0,1,7.15-13.556,1.1,1.1,0,0,1,.939-.353,1.061,1.061,0,0,1,.815.546c7.909,14.305,17.723,15.683,20.544,15.765a8.82,8.82,0,0,0,5.161-1.226c1.348,2.986,3.885,5.225,6.322,5.615C86.549,59.126,85.7,65.185,85.356,66.248ZM46.113,91.908c-.032-.085-.063-.171-.1-.252.959-1.808.907-5.417.122-7.869a11.481,11.481,0,0,0,.4-7.221,27.544,27.544,0,0,0,10.6,6.824c.087.031.164.052.249.082-.451,4.37-2.289,5.826-4.115,6.592A10.281,10.281,0,0,0,46.113,91.908Zm13.223-7.854a17.029,17.029,0,0,0,9.3.017c.554,4.413,2.436,6.35,4.35,7.391a12.546,12.546,0,0,1-18.006,0C56.9,90.418,58.791,88.478,59.336,84.054Zm11.25-.561c.1-.035.207-.063.308-.1a27.556,27.556,0,0,0,10.539-6.767,11.4,11.4,0,0,0,.411,7.155c-.789,2.455-.843,6.067.117,7.875-.034.081-.065.168-.1.254a10.275,10.275,0,0,0-7.171-1.848C72.876,89.3,71.046,87.847,70.586,83.493ZM33.716,61.3a5.735,5.735,0,0,1,.213-5.249,3.7,3.7,0,0,1,1.157-1.1,6.806,6.806,0,0,1,3.922-.669c.352,3.635,1.036,9.081,1.526,11.551a4.445,4.445,0,0,1-1.411.01A7.144,7.144,0,0,1,33.716,61.3Zm2.677,50.138c-1.706-.93-2.634-1.806-2.824-2.675a3.19,3.19,0,0,1,.879-2.508,42.246,42.246,0,0,1,4.111-4.855A30.988,30.988,0,0,0,36.393,111.436Zm27.6,5.454a80.285,80.285,0,0,1-17.252-2c.076-5.162.977-15.837,6.623-22.258a14.487,14.487,0,0,0,21.248,0c5.647,6.422,6.547,17.1,6.624,22.258A80.247,80.247,0,0,1,63.99,116.89Zm29.541-10.638a3.185,3.185,0,0,1,.872,2.507c-.191.866-1.113,1.739-2.8,2.666a30.992,30.992,0,0,0-2.18-10.02A41.449,41.449,0,0,1,93.531,106.252Zm-4.7-40.4a4.32,4.32,0,0,1-1.334-.02c.484-2.454,1.183-7.9,1.555-11.554a6.793,6.793,0,0,1,3.888.664,3.813,3.813,0,0,1,1.16,1.095,5.739,5.739,0,0,1,.218,5.264A7.224,7.224,0,0,1,88.836,65.851Z"/></g><text x="0" y="143" fill="#000000" font-size="5px" font-weight="bold" font-family="'Helvetica Neue', Helvetica, Arial-Unicode, Arial, Sans-serif">Created by Victoruler</text><text x="0" y="148" fill="#000000" font-size="5px" font-weight="bold" font-family="'Helvetica Neue', Helvetica, Arial-Unicode, Arial, Sans-serif">from the Noun Project</text></svg>