<svg xmlns="http://www.w3.org/2000/svg" viewBox="0 0 128 160" x="0px" y="0px"><title>woman, avatar, singer, curly, people, female, chubby</title><g data-name="Layer 2"><path d="M71.029,50.216a5.738,5.738,0,0,1,2.685-2.343,8.033,8.033,0,0,1,3.384-.582,10.177,10.177,0,0,1,1.662.217,8.925,8.925,0,0,0,1.31.278c.79.09,1.523-.2,2.428-.2l.215,0a.592.592,0,0,1,.493.915,3.55,3.55,0,0,1-3.243,1.35,8.882,8.882,0,0,1-1.63-.246,8.118,8.118,0,0,0-1.307-.13,6.024,6.024,0,0,0-2.474.4A4.228,4.228,0,0,0,72.7,51.29l-.024.031a.994.994,0,0,1-1.648-1.1Z"/><rect x="73.891" y="48.667" width="4.447" height="5.052" rx="2.223" ry="2.223"/><path d="M55.351,51.29A4.226,4.226,0,0,0,53.5,49.874a6.022,6.022,0,0,0-2.473-.4,8.118,8.118,0,0,0-1.307.13,8.9,8.9,0,0,1-1.63.246,3.55,3.55,0,0,1-3.243-1.35.591.591,0,0,1,.494-.915l.214,0c.905,0,1.637.29,2.428.2a8.925,8.925,0,0,0,1.31-.278,10.177,10.177,0,0,1,1.662-.217,8.026,8.026,0,0,1,3.383.582,5.735,5.735,0,0,1,2.686,2.343.994.994,0,0,1-1.648,1.1Z"/><rect x="49.714" y="48.667" width="4.447" height="5.052" rx="2.223" ry="2.223" transform="translate(103.874 102.385) rotate(180)"/><circle cx="82.676" cy="45.656" r="0.732"/><path d="M60.919,37.66a1,1,0,0,1-.216-1.976,3.966,3.966,0,0,0,2.209-2.364,3.269,3.269,0,0,0-.422-3.2c-2.166-2.985-2.745-6.368-1.511-8.826a5.368,5.368,0,0,1,4.928-2.931l.093,1v1h-.08a3.379,3.379,0,0,0-3.153,1.828c-.9,1.788-.383,4.376,1.342,6.755a5.246,5.246,0,0,1,.673,5.085,5.852,5.852,0,0,1-3.645,3.609A1.092,1.092,0,0,1,60.919,37.66Z"/><path d="M70.681,45.24a1,1,0,0,1-.525-1.852c3.092-1.9,9.526-3.169,12.875-1.914a1,1,0,1,1-.7,1.873c-2.718-1.026-8.485.125-11.125,1.746A1,1,0,0,1,70.681,45.24Z"/><path d="M57.379,45.24a1.008,1.008,0,0,1-.523-.147c-2.643-1.623-8.41-2.77-11.124-1.747a1,1,0,0,1-.7-1.871c3.345-1.263,9.781.014,12.876,1.913a1,1,0,0,1-.524,1.852Z"/><path d="M64.04,62c.036,0,3.63-.114,3.63-1.94a1,1,0,0,0-1.9-.431A5.1,5.1,0,0,1,64.04,60a5.243,5.243,0,0,1-1.759-.373,1,1,0,0,0-1.9.433C60.38,61.886,64,62,64.04,62Z"/><path d="M70.21,68.52a.743.743,0,0,0-.13-.21.47.47,0,0,0-.06-.09c-.01-.01-.02-.01-.02-.02a1.023,1.023,0,0,0-.22-.14c-.04-.02-.07-.05-.11-.07a1.7,1.7,0,0,0-.22-.04.985.985,0,0,0-.17-.02c-.02,0-.03-.01-.05-.01a1.539,1.539,0,0,1-1.35-.5,4.351,4.351,0,0,0-1.48-.88,3.011,3.011,0,0,0-2.37.22,3.019,3.019,0,0,0-2.37-.22,4.309,4.309,0,0,0-1.49.88,1.55,1.55,0,0,1-1.35.5c-.01,0-.03.01-.04.01a1.492,1.492,0,0,0-.21.02,1.163,1.163,0,0,0-.18.04,1.093,1.093,0,0,0-.15.08,1.876,1.876,0,0,0-.18.12l-.03.03a.413.413,0,0,0-.07.11.707.707,0,0,0-.12.18,1.389,1.389,0,0,0-.06.19c-.01.05-.03.09-.04.14,0,.01.01.03.01.04a1.492,1.492,0,0,0,.02.21,1.163,1.163,0,0,0,.04.18,1.191,1.191,0,0,0,.09.15.619.619,0,0,0,.11.17.138.138,0,0,0,.03.04,8.824,8.824,0,0,0,11.97,0,.138.138,0,0,0,.03-.04.619.619,0,0,0,.11-.17,1.191,1.191,0,0,0,.09-.15,1.163,1.163,0,0,0,.04-.18,1.5,1.5,0,0,0,.02-.2c0-.02.01-.03.01-.05a.88.88,0,0,0-.05-.15A.48.48,0,0,0,70.21,68.52Zm-6.18,1.45a6.7,6.7,0,0,1-2.97-.71c.13-.1.26-.2.38-.29a2.47,2.47,0,0,1,.85-.53,1,1,0,0,1,1.03.26h.01a1.526,1.526,0,0,0,.16.11c.06.03.11.08.17.11a.858.858,0,0,0,.17.03.712.712,0,0,0,.21.04.8.8,0,0,0,.15-.03.785.785,0,0,0,.22-.05,1.4,1.4,0,0,0,.16-.1,1.629,1.629,0,0,0,.17-.11v-.01a1.022,1.022,0,0,1,.72-.3,1.127,1.127,0,0,1,.32.05,2.456,2.456,0,0,1,.83.52c.12.1.25.2.38.3A6.655,6.655,0,0,1,64.03,69.97Z"/><path d="M65.2,72.9H62.85a1,1,0,1,0,0,2H65.2a1,1,0,1,0,0-2Z"/><path d="M107.38,107.6a39.694,39.694,0,0,0-3.58-4.7c.91-2.11,1.49-5.91-1.6-8.61-.95-.82-2.3-3.23-1.51-4.91,1.46-3.12,2.72-6.98-.48-9.26-2.13-1.51-1.66-3.13-1.18-3.97l.14-.24a8.829,8.829,0,0,0,1.29-3.79c.34-3.84-1.73-7.33-5.59-9.59a9.506,9.506,0,0,0,2.69-4.07c1.41-4.33.16-8.13-3.09-9.44a4.155,4.155,0,0,0-.53-.17A28.375,28.375,0,0,0,94.8,38.114a7.024,7.024,0,0,0,1.015-1.788,1,1,0,0,0-.605-1.278.978.978,0,0,0-.875.118,33.332,33.332,0,0,0-1.6-5.364,5.667,5.667,0,0,0,.613-2.43,1,1,0,0,0-1-.979h-.022a.989.989,0,0,0-.853.546,36.688,36.688,0,0,0-3.6-5.873,4.025,4.025,0,0,0,.424-1.924.989.989,0,0,0-1.971-.012,22.252,22.252,0,0,0-5.315-4.61,11.125,11.125,0,0,0-4.74-7.45,11.731,11.731,0,0,0-10-2c-3.43-2.98-9.12-3.9-14.4-2.27-4.88,1.5-8.27,4.75-9.41,8.98-4.03.28-8.26,3.09-9.43,8.99a6.927,6.927,0,0,0-4.79,7.13,11.758,11.758,0,0,0-6.03,6.38,11.654,11.654,0,0,0-.23,8.86,7.321,7.321,0,0,0-3.23,3.09,8.262,8.262,0,0,0-.92,5.76c-2.56,1.71-3.43,4.43-2.37,7.59a.818.818,0,0,1-.34.92,6.474,6.474,0,0,0-2.94,5.28,9.563,9.563,0,0,0,1.4,4.76c.63,1.18.7,1.41.26,1.96-1.95,2.43-3.17,7.32.22,10.55,1.75,1.67,2.08,2.8,1.3,4.5-.07.17-.17.36-.28.57-.89,1.79-2.74,5.52-.41,8.68a6.522,6.522,0,0,0,3.08,2.26c.87.37,1.31.56,1.6,1.42a4.159,4.159,0,0,1-.01,2.32,5.4,5.4,0,0,0,1.15,5.11,6.614,6.614,0,0,0-1.03,5.08c.65,2.53,3.17,4.21,5.55,5.52a36.591,36.591,0,0,0,4.23,1.92c5.37,2.08,17.04,5.57,34.78,5.57h.01c17.73,0,29.39-3.49,34.77-5.57a38.181,38.181,0,0,0,4.24-1.92c2.38-1.31,4.9-2.99,5.55-5.52A6.78,6.78,0,0,0,107.38,107.6ZM28.74,118.07a29.728,29.728,0,0,1-2.77-1.32c-2.84-1.56-4.21-2.84-4.57-4.26a4.924,4.924,0,0,1,.97-3.84l.19-.29c1.39-2.14,6.77-9.57,17.62-15.69.12-.07.26-.15.39-.22C34.76,100.6,29.62,112.58,28.74,118.07Zm36.1,3.88a33.809,33.809,0,0,1,.83-9.62,1,1,0,1,0-1.92-.56,34.888,34.888,0,0,0-.93,9.66c-5.54-6.94-15.03-11.14-17.63-12.21.26-8.4,5.56-20.92,6.22-22.46a10.488,10.488,0,0,0,3.07-3.7,22.665,22.665,0,0,0,9.64,2.57,22.509,22.509,0,0,0,9.48-2.5,10.311,10.311,0,0,0,3.06,3.68c.74,1.73,5.94,14.09,6.2,22.41C80.19,110.31,70.32,114.71,64.84,121.95Zm9.03-41.2a.865.865,0,0,0-.23.06.835.835,0,0,0-.3.22,21.1,21.1,0,0,1-9.22,2.6,21.535,21.535,0,0,1-9.65-2.81A28.965,28.965,0,0,1,43.94,71.4c-.01-.02-.01-.03-.02-.05-.17-.25-.33-.51-.49-.79a7.906,7.906,0,0,1-.55-6.12,7.8,7.8,0,0,0-2.4-7.75,6.611,6.611,0,0,0,.82-5.54,6.662,6.662,0,0,0,1.87-4.31,6.246,6.246,0,0,0-.85-4.09,10.192,10.192,0,0,0,2.43-8.5c1.92-.99,3.94-3.02,4.36-7.2a6.413,6.413,0,0,0,5.11-3.69l.02-.02c1.93-2.12,5.1-2.79,7.33-2.98h.01a17.377,17.377,0,0,1,2.54-.05c.02,0,.03-.01.04-.01s.03.01.04.01c.57,0,1.12.02,1.67.05h.05C87.7,21.57,87.75,45.84,87.74,46.87a.375.375,0,0,0,.01.11c.09.9.14,1.97.15,3.19.01,1.85-.07,4.03-.23,6.29,0,.02-.01.03-.01.04-.2,3-.48,5.49-.62,6.7-.2,1.54-.36,2.51-.43,2.86C85.09,72.66,79.08,77.94,73.87,80.75ZM87.05,72.6l2.14-8.02.53-1.97a3.915,3.915,0,0,1-.59-.05c.14-1.31.34-3.28.5-5.57a4.024,4.024,0,0,1,3.23-1.15,1,1,0,1,0,.26-1.98,6.652,6.652,0,0,0-3.32.53c.06-1.25.09-2.44.1-3.55a9.641,9.641,0,0,1,2.69-.17,3.685,3.685,0,0,1,1.11.2c2.58,1.04,2.84,4.25,1.96,6.97a7.526,7.526,0,0,1-3.11,3.95l2.22,7.03,1.12,3.56a.971.971,0,0,1,0,.63L92.16,83.93a.992.992,0,0,1-.94.67H91.2a.975.975,0,0,1-.94-.71l-3.2-10.75A1.1,1.1,0,0,1,87.05,72.6Zm19.6,39.89c-.36,1.42-1.73,2.7-4.57,4.26a29.029,29.029,0,0,1-2.78,1.32c-.83-5.28-5.55-17.07-11.54-25.47a56.251,56.251,0,0,1,14.11,11.13,36.181,36.181,0,0,1,3.81,4.93A4.894,4.894,0,0,1,106.65,112.49Z"/><polygon points="93.89 72.67 91.92 66.42 91.3 64.46 90.99 65.63 89.06 72.84 91.28 80.32 93.89 72.67"/></g><text x="0" y="143" fill="#000000" font-size="5px" font-weight="bold" font-family="'Helvetica Neue', Helvetica, Arial-Unicode, Arial, Sans-serif">Created by Victoruler</text><text x="0" y="148" fill="#000000" font-size="5px" font-weight="bold" font-family="'Helvetica Neue', Helvetica, Arial-Unicode, Arial, Sans-serif">from the Noun Project</text></svg>