<svg xmlns="http://www.w3.org/2000/svg" viewBox="0 0 128 160" x="0px" y="0px"><title>science, avatar, experiment, female, education, Chemist, laboratory</title><path d="M65.915,69.9a1.5,1.5,0,0,1-1.275-.708,1.386,1.386,0,0,0-1.272,0,1.5,1.5,0,0,1-2.775-.791c0-1.942,2.734-2.363,3.411-2.363s3.411.421,3.411,2.363A1.5,1.5,0,0,1,65.915,69.9Z"/><path d="M64,77.608a25.136,25.136,0,0,1-3.633-.264,1.5,1.5,0,0,1,.434-2.969,22.06,22.06,0,0,0,6.4,0,1.5,1.5,0,0,1,.434,2.969A25.139,25.139,0,0,1,64,77.608Z"/><circle cx="103.726" cy="86.703" r="0.827"/><circle cx="106.75" cy="97.561" r="1.208"/><circle cx="49.118" cy="58.991" r="8.408"/><circle cx="78.882" cy="58.991" r="8.408"/><path d="M122.349,113.955a25.3,25.3,0,0,0,3.131-5,20.973,20.973,0,0,0-1.87-21.57,36.717,36.717,0,0,0-3.7-4.27c-3.37-3.49-6.55-6.79-4.76-11.47a22.6,22.6,0,0,0,1.035-13.764,3.448,3.448,0,0,0,.719-.9l.935-1.71,1.709-.935a3.459,3.459,0,0,0,0-6.069l-1.709-.935-.936-1.709a3.458,3.458,0,0,0-6.068,0l-.713,1.3c-.514-.571-1.056-1.135-1.632-1.691-4.09-3.97-4.85-6.7-5.99-10.82-.36-1.3-.77-2.77-1.33-4.4C95.34,12.98,81.66,2.86,64.54,2.86H63.5c-17.16,0-30.84,10.12-36.67,27.16-.56,1.63-.97,3.1-1.33,4.4-1.14,4.12-1.9,6.85-5.99,10.82-8,7.76-10.3,16.89-6.66,26.41,1.79,4.68-1.39,7.98-4.76,11.47a36.717,36.717,0,0,0-3.7,4.27,20.973,20.973,0,0,0-1.87,21.57c3.95,8.37,12.59,14.4,22.24,15.64a3.477,3.477,0,0,0,.49,1.03,3.534,3.534,0,0,0,2.85,1.45l95.078,0a4.311,4.311,0,0,0,3.814-2.3,4.266,4.266,0,0,0-.226-4.4C125.761,118.9,124.138,116.543,122.349,113.955ZM54.96,25.54c1.69-.88,3.94-.74,6.87.42a5.914,5.914,0,0,0,4.34,0c2.93-1.16,5.18-1.3,6.87-.42,3.31,1.72,4.7,7.46,6.16,13.54.167.7.345,1.406.523,2.114q-.783-.017-1.555.016a33.011,33.011,0,0,0-6.79,1.069,1.5,1.5,0,0,0,.655,2.923l.011,0c2.119-.377,4.242-.779,6.343-.986.707-.076,1.407-.12,2.1-.139.046.167.087.334.134.5-.247-.008-.489-.035-.739-.035-4.251,0-8.848,1.808-12.945,5.089a4.3,4.3,0,0,1-5.871,0c-4.1-3.281-8.693-5.089-12.944-5.089-.25,0-.492.027-.739.035.047-.166.088-.333.134-.5.691.019,1.391.063,2.1.139,2.1.207,4.224.609,6.343.986l.017,0a1.5,1.5,0,0,0,.649-2.924,33.011,33.011,0,0,0-6.79-1.069q-.771-.032-1.555-.016c.178-.708.356-1.417.523-2.114C50.26,33,51.65,27.26,54.96,25.54ZM37.336,52.011c2.148-2.8,6.18-4.471,10.784-4.471,3.571,0,7.5,1.573,11.068,4.431a7.317,7.317,0,0,0,9.623,0c3.567-2.858,7.5-4.431,11.069-4.431,4.6,0,8.636,1.672,10.784,4.471a8.834,8.834,0,0,1,1.257,8.037,14.16,14.16,0,0,1-8.132,9.385A11.824,11.824,0,0,1,73.477,69.1a11.4,11.4,0,0,1-5.831-7.91,3.734,3.734,0,0,0-7.292,0A11.4,11.4,0,0,1,54.523,69.1a11.824,11.824,0,0,1-10.312.337,14.16,14.16,0,0,1-8.132-9.385A8.834,8.834,0,0,1,37.336,52.011ZM89.559,69.285A30.426,30.426,0,0,1,84.14,81.41c-4.46,5.71-11.75,7.91-16.57,9.37l-.51.15a10.462,10.462,0,0,1-6.12,0l-.51-.15c-4.82-1.46-12.1-3.66-16.56-9.37A30.412,30.412,0,0,1,38.457,69.3a16.674,16.674,0,0,0,4.6,2.9,15.782,15.782,0,0,0,6.078,1.254A14.458,14.458,0,0,0,63.3,61.754a.743.743,0,0,1,1.4,0,14.38,14.38,0,0,0,7.357,9.985,14.766,14.766,0,0,0,12.886.464A16.662,16.662,0,0,0,89.559,69.285ZM30.55,61.08a5.049,5.049,0,0,1,2.52-.766c.039.17.065.337.111.509a17.106,17.106,0,0,0,1.043,2.79,6.1,6.1,0,0,0-2.444.157,1.5,1.5,0,1,0,.83,2.88,2.679,2.679,0,0,1,2.34.45,46.015,46.015,0,0,0,1.6,6.61,8.172,8.172,0,0,1-7.51-5.28C28.17,66,28.27,62.66,30.55,61.08Zm-2.45,63a.531.531,0,0,1-.42-.21.473.473,0,0,1-.07-.42,28.856,28.856,0,0,1,12.48-16.03,10.753,10.753,0,0,0-1.03,2.46,1.782,1.782,0,0,0,.35,1.6,2.093,2.093,0,0,0,1.09.71,4.478,4.478,0,0,0-1.43,4.04,26.094,26.094,0,0,0,2.65,7.85Zm21.84-16.36a78.749,78.749,0,0,0-.03,16.36H45.12a24.9,24.9,0,0,1-3.09-8.29c-.06-.43-.23-1.58,3.62-3.41a1.5,1.5,0,0,0-.72-2.85c-.59.033-1.206.04-1.758.023a.5.5,0,0,1-.421-.741,16.278,16.278,0,0,1,3.5-4.222,16.142,16.142,0,0,1,4.71-2.49C50.55,103.73,49.92,107.5,49.94,107.72ZM64,109.47a23.159,23.159,0,0,1-10.91-2.62,36.182,36.182,0,0,1,1.39-6.15,11.453,11.453,0,0,0,4.29-7.29c.27.08,1.3.39,1.3.39a13.384,13.384,0,0,0,7.86,0s1.03-.31,1.3-.39a11.408,11.408,0,0,0,4.29,7.27,36.412,36.412,0,0,1,1.39,6.17A23.159,23.159,0,0,1,64,109.47Zm21.966,6.47-.142.558-2.7,3.9a4.3,4.3,0,0,0-.5,3.678H78.09a78.749,78.749,0,0,0-.03-16.36c.02-.22-.61-3.99-1.02-5.62a16.142,16.142,0,0,1,4.71,2.49,16.278,16.278,0,0,1,3.5,4.222.5.5,0,0,1-.421.741c-.552.017-1.168.01-1.758-.023a1.476,1.476,0,0,0-1.53,1.13,1.491,1.491,0,0,0,.81,1.72C86.809,114.5,85.876,115.707,85.966,115.94Zm2.241-2.886a5.843,5.843,0,0,0-.707-.864,2.093,2.093,0,0,0,1.09-.71,1.782,1.782,0,0,0,.35-1.6,11.277,11.277,0,0,0-1.03-2.47,29.491,29.491,0,0,1,2.821,2Zm7.989,7.565a1.289,1.289,0,1,1,1.289-1.289A1.289,1.289,0,0,1,96.2,120.619ZM98.97,68.43a8.183,8.183,0,0,1-7.51,5.28,45.822,45.822,0,0,0,1.6-6.62,2.685,2.685,0,0,1,2.34-.44,1.5,1.5,0,1,0,.83-2.88,6.157,6.157,0,0,0-2.455-.157,17.018,17.018,0,0,0,1.044-2.79c.046-.171.071-.338.111-.509a5.167,5.167,0,0,1,2.53.766C99.74,62.66,99.84,66,98.97,68.43Zm4.991,43.055a1.777,1.777,0,1,1,1.777-1.777A1.777,1.777,0,0,1,103.961,111.485Zm-4.117-10.032a5.674,5.674,0,0,0,.782-2.853V81.363a1,1,0,0,1,1-1h6.645a1,1,0,0,1,1,1V98.6a5.676,5.676,0,0,0,.781,2.853ZM110.73,69.49l-1.09.59-.59,1.08a1.23,1.23,0,0,1-1.09.65,1.245,1.245,0,0,1-1.1-.64l-.59-1.09-1.08-.59a1.247,1.247,0,0,1,0-2.19l1.08-.59.59-1.08a1.247,1.247,0,0,1,2.19,0l.59,1.08,1.09.59a1.247,1.247,0,0,1,0,2.19ZM111.992,53,109.63,51.71a.458.458,0,0,1,0-.8l2.362-1.293a.458.458,0,0,0,.183-.182l1.292-2.363a.459.459,0,0,1,.8,0l1.293,2.363a.455.455,0,0,0,.182.182l2.363,1.293a.458.458,0,0,1,0,.8L115.746,53a.458.458,0,0,0-.182.183l-1.293,2.362a.458.458,0,0,1-.8,0l-1.292-2.362A.46.46,0,0,0,111.992,53Zm1.967,65.684a1.012,1.012,0,1,1,1.012-1.012A1.012,1.012,0,0,1,113.959,118.686Z"/><text x="0" y="143" fill="#000000" font-size="5px" font-weight="bold" font-family="'Helvetica Neue', Helvetica, Arial-Unicode, Arial, Sans-serif">Created by Victoruler</text><text x="0" y="148" fill="#000000" font-size="5px" font-weight="bold" font-family="'Helvetica Neue', Helvetica, Arial-Unicode, Arial, Sans-serif">from the Noun Project</text></svg>