<svg xmlns="http://www.w3.org/2000/svg" viewBox="0 0 128 160" x="0px" y="0px"><title>man, old, teacher, professor, teach, leader, avatar</title><g><path d="M69.544,44.035a1,1,0,0,1-.311-1.95,45.338,45.338,0,0,1,10.556-1.2,7.812,7.812,0,0,1,3.571,1.354,1,1,0,1,1-1.222,1.582,5.931,5.931,0,0,0-2.592-.951,45.432,45.432,0,0,0-9.692,1.11A.957.957,0,0,1,69.544,44.035Z"/><path d="M58.468,44.035a.978.978,0,0,1-.309-.049,45.231,45.231,0,0,0-9.708-1.11,5.959,5.959,0,0,0-2.593.953,1,1,0,1,1-1.214-1.588,7.878,7.878,0,0,1,3.563-1.35,45.543,45.543,0,0,1,10.569,1.193,1,1,0,0,1-.308,1.951Z"/><path d="M87.086,45.716l-2.922.33a3.361,3.361,0,0,0-2.994-1.895H81.1l-12.023.141a2.931,2.931,0,0,0-2.141,1.035H60.97A2.894,2.894,0,0,0,58.845,44.3l-12.009-.149a3.379,3.379,0,0,0-3.03,1.905l-3.054-.324a1,1,0,0,0-.211,1.989l2.892.306c.005.052.005.109.013.158,0,0,.613,5.192.836,6.906a3.626,3.626,0,0,0,3.577,2.971c.059,0,.117,0,.174,0l9.885-.192a3.476,3.476,0,0,0,3.139-2.962l.867-6.083a4.413,4.413,0,0,0-.025-1.494h4.112A3.953,3.953,0,0,0,66,48.621l.875,5.79a3.434,3.434,0,0,0,3.188,2.824l9.8.178c.061,0,.122,0,.184,0a3.555,3.555,0,0,0,3.6-2.846c.223-1.617.831-6.492.83-6.492,0-.018,0-.037,0-.055l2.83-.32a1,1,0,0,0-.225-1.988Zm-27.14,2.805L59.079,54.6a1.453,1.453,0,0,1-1.242,1.265l-9.879.192a1.694,1.694,0,0,1-1.692-1.224c-.223-1.711-.833-6.885-.839-6.929a1.364,1.364,0,0,1-.005-.38v-.006a1.447,1.447,0,0,1,1.353-1.37H46.8l12.012.149a1.114,1.114,0,0,1,.877.674A2.5,2.5,0,0,1,59.946,48.521ZM82.5,47.786s-.61,4.894-.834,6.516c-.09.673-1,1.16-1.729,1.112l-9.791-.177a1.4,1.4,0,0,1-1.291-1.143l-.874-5.79a2.1,2.1,0,0,1,.262-1.387,1.116,1.116,0,0,1,.868-.624l12.027-.141h.025A1.389,1.389,0,0,1,82.507,47.4l0,.014A1.334,1.334,0,0,1,82.5,47.786Z"/><path d="M63.859,57.417c.03,0,2.9-.071,2.9-1.67a1,1,0,0,0-1.843-.539,3.682,3.682,0,0,1-1.062.209,3.758,3.758,0,0,1-1.075-.209,1,1,0,0,0-1.842.539C60.942,57.371,63.83,57.417,63.859,57.417Z"/><path d="M100.463,105.448a49.68,49.68,0,0,0-14.35-12.943A62.527,62.527,0,0,0,76.8,88a10.741,10.741,0,0,1-2.035-1.26l-.039-.028a8.344,8.344,0,0,1-1.934-2.624,11.288,11.288,0,0,1-.57-1.5,19.145,19.145,0,0,0,5.691-4.944,11.129,11.129,0,0,1,2.175-1.7c.55-.367,1.069-.714,1.482-1.054C86.267,71,87.286,65.787,87.482,61a5.994,5.994,0,0,0,.835.071c3.364,0,6.035-2.948,7.251-6.164a8.351,8.351,0,0,0-.021-6.48,6.122,6.122,0,0,0-2.126-2.47,6.857,6.857,0,0,0,.64-.755c1.62-2.231,3.044-6.886,1.726-12.657l-.093-.418c-3.755-17.012-13.659-22.177-21.37-23.5-6.418-3.163-15.386-2.683-24.03,1.293-8.432,3.878-14.431,10.1-16.047,16.654-.3,1.211-.6,2.358-.886,3.443-1.218,4.634-2.181,8.294-1.449,11.434a8.872,8.872,0,0,0,2.7,4.688,6.151,6.151,0,0,0-2.047,2.412,8.2,8.2,0,0,0-.02,6.358c1.217,3.214,3.886,6.161,7.25,6.161a5.879,5.879,0,0,0,.727-.062c.185,4.775,1.2,9.982,5.9,13.884.412.342.933.692,1.485,1.063a11.715,11.715,0,0,1,2.18,1.7,20.671,20.671,0,0,0,5.661,4.925,10.822,10.822,0,0,1-.573,1.508,8.173,8.173,0,0,1-1.973,2.671,6.753,6.753,0,0,1-2,1.239c-3.5,1.373-9.356,4.531-9.371,4.541a49.682,49.682,0,0,0-14.3,12.906,5.781,5.781,0,0,0-1.423,4.724c.5,2.275,2.835,3.752,4.547,4.664a39.586,39.586,0,0,0,6.821,2.685,93.481,93.481,0,0,0,17.883,3.455,1.223,1.223,0,0,0,.155.026c.861.08,1.721.16,2.575.217,1.975.142,3.962.215,5.9.215s3.929-.073,5.9-.214c.9-.06,1.779-.131,2.666-.227A94.381,94.381,0,0,0,90.5,117.52a38.837,38.837,0,0,0,6.834-2.684c1.713-.913,4.048-2.39,4.548-4.665A5.78,5.78,0,0,0,100.463,105.448ZM87.53,58.616c.008-1.081.015-2.013.089-2.772h0v0c.023-.249.087-1.232.174-2.636a4.67,4.67,0,0,1,2.676-1.875,1,1,0,0,0-.283-1.98,5.9,5.9,0,0,0-2.213.943l.082-1.327c.042-.7.081-1.333.112-1.839a11.118,11.118,0,0,0,2.851.117,3.069,3.069,0,0,0,.425-.1,4.234,4.234,0,0,1,2.291,2.132,6.473,6.473,0,0,1-.039,4.93c-1.048,2.771-3.383,5.323-6.169,4.783ZM34.422,54.209a6.23,6.23,0,0,1-.04-4.808,4.3,4.3,0,0,1,2.326-2.153,5.478,5.478,0,0,0,1.41.19,7.241,7.241,0,0,0,1.57-.193c.044.538.1,1.211.157,1.954l.083,1.051a5.649,5.649,0,0,0-1.96-.9.987.987,0,0,0-1.155.793,1.007,1.007,0,0,0,.786,1.172,4.827,4.827,0,0,1,2.57,1.936c.105,1.31.189,2.343.211,2.584v0h0c.069.716.08,1.587.092,2.595,0,.182.006.376.008.563C37.744,59.456,35.455,56.94,34.422,54.209ZM51.161,61.8a4.206,4.206,0,0,1-4.859.048,10.579,10.579,0,0,1-3.93-6.2h0c-.043-.467-.32-3.938-.534-6.615-.079-1-.149-1.874-.2-2.458A18.277,18.277,0,0,0,45.9,43.8c2.685-2.282,5.85-2.871,9.2-3.493,5.511-1.026,11.759-2.187,15.747-11.776a2.262,2.262,0,0,1,1.813-1.412,2.567,2.567,0,0,1,2.388,1c1.138,1.444,1.869,3.7,2.643,6.1,1.211,3.743,2.582,7.985,5.971,10.879A8.84,8.84,0,0,0,86.2,46.587c-.035.554-.084,1.349-.139,2.255-.163,2.679-.388,6.349-.431,6.813h0A10.576,10.576,0,0,1,81.7,61.849,4.188,4.188,0,0,1,76.85,61.8a19.744,19.744,0,0,0-11.815-3.459H62.977A19.68,19.68,0,0,0,51.161,61.8Zm6.05,22.61c.134-.314.262-.634.373-.971A16.791,16.791,0,0,0,64,84.639a17.2,17.2,0,0,0,6.389-1.206c.111.335.242.662.378.983a8.124,8.124,0,0,1-13.556,0ZM58.9,62.661a1,1,0,0,1,1.409-.138c.161.134,1.161.514,3.55.514s3.377-.38,3.538-.514a1,1,0,0,1,1.272,1.545c-.974.8-3.153.969-4.81.969s-3.848-.168-4.822-.969A1,1,0,0,1,58.9,62.661Zm-1.715,56.481c-.289-.025-.592-.051-.893-.079-1.718-6.191-3.36-22.932-1.5-31.05a9.62,9.62,0,0,0,1.379-1.641,10.245,10.245,0,0,0,7.827,3.687c-1.461,0-2.517,1.085-3.539,2.132a14.345,14.345,0,0,1-1.6,1.479,4.431,4.431,0,0,1-3.341.968,1.02,1.02,0,0,0-1.1.893,1,1,0,0,0,.893,1.1,6.354,6.354,0,0,0,3.8-.753,10.358,10.358,0,0,0,1.556,1.893A93.3,93.3,0,0,0,57.185,119.142Zm14.516-.083c-.295.028-.591.051-.886.075A93.043,93.043,0,0,0,67.372,97.86,9.307,9.307,0,0,0,69,95.937a6.275,6.275,0,0,0,2.95.73,7.2,7.2,0,0,0,.743-.04,1,1,0,1,0-.209-1.988,4.442,4.442,0,0,1-3.257-.908,13.683,13.683,0,0,1-1.683-1.543c-1.021-1.046-2.076-2.126-3.533-2.129a10.187,10.187,0,0,0,7.811-3.686A10.033,10.033,0,0,0,73.188,88C75.048,96.142,73.416,112.866,71.7,119.059Z"/><path d="M50.771,47.868V48.9a2.258,2.258,0,1,0,4.516,0V47.868a2.262,2.262,0,0,0-3.857-1.6A2.3,2.3,0,0,0,50.771,47.868Z"/><path d="M72.431,47.868V48.9a2.252,2.252,0,1,0,4.5,0V47.868a2.252,2.252,0,1,0-4.5,0Z"/></g><text x="0" y="143" fill="#000000" font-size="5px" font-weight="bold" font-family="'Helvetica Neue', Helvetica, Arial-Unicode, Arial, Sans-serif">Created by Victoruler</text><text x="0" y="148" fill="#000000" font-size="5px" font-weight="bold" font-family="'Helvetica Neue', Helvetica, Arial-Unicode, Arial, Sans-serif">from the Noun Project</text></svg>