<svg xmlns="http://www.w3.org/2000/svg" xmlns:xlink="http://www.w3.org/1999/xlink" version="1.1" x="0px" y="0px" viewBox="0 0 100 125" style="enable-background:new 0 0 100 100;" xml:space="preserve"><style type="text/css">
	.st0{display:none;}
</style><g><g><path d="M82.01,60.62c0-0.05-0.01-0.09-0.02-0.14c-0.02-0.07-0.03-0.12-0.06-0.18c-0.02-0.03-0.03-0.07-0.06-0.1    c-0.03-0.06-0.07-0.12-0.13-0.16c-0.01-0.02-0.02-0.03-0.03-0.04c-0.02-0.02-0.03-0.02-0.05-0.03c-0.06-0.04-0.12-0.07-0.18-0.09    c-0.04-0.02-0.08-0.03-0.12-0.04c-0.03-0.01-0.06-0.02-0.1-0.02c-0.02,0-0.06,0.01-0.08,0.01c-0.05,0-0.09,0.01-0.13,0.02    c-0.07,0.01-0.12,0.02-0.17,0.05c-0.05,0.02-0.08,0.04-0.12,0.07c-0.05,0.03-0.09,0.07-0.13,0.11c-0.02,0.02-0.04,0.02-0.06,0.05    c-0.61,0.74-1.8,1.95-2.93,1.81c-1.09-0.14-1.95-1.54-2.47-2.69c-1.42-3.08-0.36-4.52,0.86-6.19c1.35-1.85,2.88-3.94,0.74-7.94    c-0.17-0.57-0.96-2.8-3.71-3.42c-1.63-0.36-1.48-2.9-1.43-3.49c0.61-1.23,1.07-2.43,1.37-3.56c0.69-2.72-0.22-5.6-2.35-7.34    c-2.93-2.41-3.37-5.87-3.42-8.93c-0.06-3.76-4.4-6.13-6.27-6.97c-0.52-0.24-0.96-0.48-1.34-0.73c-5.19-3.48-10.1-0.42-11.97,1.06    c-0.31,0.24-0.73,0.25-1.02,0.02c-1.84-1.43-5.49-3.61-9.34-2.1c-2.27,0.88-3.95,2.91-4.52,5.44c-0.52,2.35-1.77,6.49-4.23,7.73    c-2.39,1.22-4.09,3.26-4.65,5.59c-0.37,1.56-0.41,3.94,1.36,6.71c-1.55,1.58-3.79,4.36-4.03,7.49c-0.15,1.95,0.49,3.73,1.9,5.31    c0.13,0.46,0.46,2-0.85,3c-0.94,0.71-1.4,1.9-1.33,3.35c0.12,2.22,1.5,4.6,3.27,5.65c0.22,0.13,0.31,0.31,0.29,0.59    c-0.06,0.84-1.08,2.17-2.45,2.74c-0.67,0.28-1.67,0.46-2.54-0.28l-0.17-0.14c-0.01-0.01-0.02-0.01-0.02-0.02    c-0.06-0.04-0.12-0.07-0.17-0.09c-0.04-0.02-0.07-0.05-0.12-0.06c-0.05-0.02-0.1-0.02-0.15-0.02c-0.06-0.01-0.12-0.02-0.17-0.01    c-0.01,0-0.02-0.01-0.02-0.01c-0.04,0.01-0.07,0.03-0.11,0.04c-0.06,0.02-0.12,0.03-0.17,0.06c-0.05,0.03-0.09,0.07-0.13,0.11    c-0.03,0.02-0.07,0.04-0.1,0.07c0,0.01-0.01,0.02-0.01,0.02c-0.04,0.05-0.07,0.1-0.09,0.16c-0.02,0.04-0.05,0.08-0.06,0.12    C18,63.26,18,63.31,18,63.35c-0.01,0.07-0.02,0.12-0.02,0.18v0.02c0.22,1.53,0.84,3.53,2.57,4.47c0.56,0.3,1.19,0.46,1.88,0.47    c-0.56,1.07-0.94,2.24-1.09,3.48c0,0-0.5,4.07-0.83,6.7c-0.2,1.69,0.58,3.29,2.04,4.19c8.75,5.32,17.71,8.04,26.67,8.07    c8.95-0.03,17.92-2.75,26.67-8.07c1.45-0.9,2.23-2.5,2.03-4.19c-0.33-2.63-0.83-6.7-0.83-6.7c-0.15-1.22-0.54-2.4-1.1-3.47    c0.03,0,0.07,0.01,0.11,0.01c1.19,0,2.27-0.36,3.15-1.04c1.57-1.24,2.5-3.51,2.77-6.77C82.02,60.67,82.01,60.65,82.01,60.62z     M49.79,12.84c0.04-0.01,1.19-0.31,2.83-0.49c0.46-0.04,0.86,0.29,0.9,0.74c0.05,0.46-0.28,0.87-0.74,0.91    c-1.5,0.16-2.57,0.44-2.58,0.44c-0.07,0.02-0.14,0.03-0.22,0.03c-0.36,0-0.7-0.25-0.8-0.62C49.08,13.41,49.34,12.95,49.79,12.84z     M49.18,68.97c-4.55,0-8.26-4.31-8.52-9.81c1.55-1.15,2.5-3.18,3.04-5.01c1.38,0.74,2.96,1.3,4.77,1.59    c0.04,0.01,0.09,0.01,0.13,0.01h1.19c0.04,0,0.08,0,0.12-0.01c1.82-0.29,3.42-0.86,4.81-1.61c0.55,1.82,1.49,3.86,3.05,5.02    C57.51,64.67,53.79,68.97,49.18,68.97z M49.72,54.09h-1.04c-6.82-1.13-10.08-6.53-11.61-10.91c-0.01-0.02-0.02-0.04-0.02-0.06    l-0.06-0.18c-0.01-0.02-0.02-0.02-0.02-0.03c-0.01-0.02-0.01-0.03-0.02-0.05c-1.77-3.56-2.45-6.38-1.79-7.56    c0.14-0.26,0.42-0.61,1.27-0.69c3.44-0.32,5.33-3.89,5.18-9.78c-0.02-0.94,0.5-1.82,1.33-2.25c2.31-1.17,4.92-0.49,7.54,1.96    c0.61,0.57,1.17,1.09,1.68,1.57c4.64,4.29,5.02,4.64,5.07,9.26c0.02,2.14,1.42,3.58,3.91,4.05c0.4,0.07,0.78,0.22,1.12,0.43    C61.38,44.03,58.51,52.64,49.72,54.09z M67.64,28.57c-0.07,0.39-0.42,0.66-0.81,0.66c-0.05,0-0.11-0.01-0.17-0.02    c-0.71-0.14-2.53-1.38-3.97-9.84c-0.58-3.41-2.98-5.24-7.15-5.46c-0.46-0.02-0.81-0.41-0.79-0.87c0.02-0.46,0.4-0.8,0.87-0.78    c4.97,0.26,7.98,2.62,8.7,6.83c1.22,7.19,2.63,8.41,2.79,8.53C67.5,27.77,67.73,28.16,67.64,28.57z"/></g></g><text x="0" y="115" fill="#000000" font-size="5px" font-weight="bold" font-family="'Helvetica Neue', Helvetica, Arial-Unicode, Arial, Sans-serif">Created by AB Designs</text><text x="0" y="120" fill="#000000" font-size="5px" font-weight="bold" font-family="'Helvetica Neue', Helvetica, Arial-Unicode, Arial, Sans-serif">from the Noun Project</text></svg>